<svg width="577" height="414" viewBox="0 0 577 414" fill="none" xmlns="http://www.w3.org/2000/svg">
<path d="M506.695 23.5933C499.325 23.5933 493.307 29.6131 493.307 36.9856C493.307 29.6131 487.289 23.5933 479.919 23.5933C487.289 23.5933 493.307 17.5736 493.307 10.201C493.307 17.6412 499.325 23.5933 506.695 23.5933Z" fill="#47C3F1" stroke="black" stroke-width="2" stroke-miterlimit="10" stroke-linecap="round" stroke-linejoin="round"/>
<path d="M367.746 71.7514C360.376 71.7514 354.358 77.7712 354.358 85.1437C354.358 77.7712 348.341 71.7514 340.971 71.7514C348.341 71.7514 354.358 65.7316 354.358 58.3591C354.358 65.7316 360.376 71.7514 367.746 71.7514Z" fill="#47C3F1" stroke="black" stroke-width="2" stroke-miterlimit="10" stroke-linecap="round" stroke-linejoin="round"/>
<path d="M381.134 17.7765C373.764 17.7765 367.746 23.7963 367.746 31.1688C367.746 23.7963 361.728 17.7765 354.358 17.7765C361.728 17.7765 367.746 11.7568 367.746 4.38428C367.746 11.7568 373.764 17.7765 381.134 17.7765Z" fill="#47C3F1" stroke="black" stroke-width="2" stroke-miterlimit="10" stroke-linecap="round" stroke-linejoin="round"/>
<path d="M345.163 201.21C344.216 222.583 354.358 244.16 371.6 257.146V373.415H439.35V216.969L353.141 190.185L345.163 201.21Z" fill="#E0E0E0" stroke="black" stroke-width="2" stroke-miterlimit="10" stroke-linecap="round" stroke-linejoin="round"/>
<path d="M451.588 45.2374L448.005 43.8847C446.653 43.3436 445.909 41.8555 446.45 40.4351L446.653 39.894C447.194 38.5413 448.749 37.8649 450.101 38.3384L453.685 39.6911C455.037 40.2322 455.781 41.7203 455.24 43.1407L455.037 43.6818C454.496 45.0345 452.941 45.7109 451.588 45.2374Z" fill="#EDE73B" stroke="black" stroke-width="2" stroke-miterlimit="10" stroke-linecap="round" stroke-linejoin="round"/>
<path d="M437.998 57.0739L427.179 52.948C423.866 51.6629 422.176 48.0105 423.461 44.6962L431.372 24.2696C432.656 20.9554 436.375 19.3321 439.688 20.6172L450.507 24.7431C453.82 26.0282 455.51 29.6806 454.225 32.9949L446.314 53.4215C445.03 56.6681 441.311 58.359 437.998 57.0739Z" fill="#EDE73B" stroke="black" stroke-width="2" stroke-miterlimit="10" stroke-linecap="round" stroke-linejoin="round"/>
<path d="M447.672 38.8638C447.936 38.2051 447.701 37.4906 447.146 37.2679C446.592 37.0452 445.928 37.3987 445.664 38.0573C445.399 38.716 445.635 39.4304 446.189 39.6531C446.744 39.8758 447.407 39.5224 447.672 38.8638Z" fill="black" stroke="black" stroke-width="2" stroke-miterlimit="10.0002" stroke-linecap="round" stroke-linejoin="round"/>
<path d="M444.083 44.9669L447.396 49.3633" stroke="black" stroke-width="2" stroke-miterlimit="10" stroke-linecap="round" stroke-linejoin="round"/>
<path d="M452.941 14.9357C450.642 14.3269 448.343 14.8004 446.517 16.0179C446.179 15.8149 445.774 15.6797 445.3 15.5444C444.692 15.4091 444.083 15.3415 443.475 15.4091C444.016 12.5007 443.339 9.38937 441.379 6.81914C437.66 1.94922 430.628 1.0023 425.76 4.72237C423.19 6.68386 421.703 9.45701 421.432 12.4331C417.781 11.8243 413.859 12.7036 410.681 15.0709C404.528 19.7379 403.311 28.3956 407.977 34.4829C409.059 35.9033 410.343 36.9855 411.763 37.8648C411.155 41.5849 413.386 45.2373 417.105 46.3872C416.429 49.0251 417.984 51.7306 420.688 52.4746C423.123 53.0833 425.624 51.8658 426.571 49.5662C426.706 49.6338 426.909 49.7014 427.044 49.7014C431.169 50.7836 435.361 48.3487 436.443 44.2904C436.848 42.6671 436.713 41.0438 436.172 39.5558C437.119 39.4205 437.998 39.0147 438.809 38.4736C441.379 36.5121 441.852 32.9273 439.959 30.3571L439.891 30.2894C439.891 30.2894 439.891 30.2894 439.891 30.2218C440.026 30.1541 440.161 30.0865 440.297 30.0189C440.635 30.9658 441.446 31.7098 442.528 31.9804C444.286 32.4538 446.044 31.3716 446.517 29.6807C446.517 29.5454 446.585 29.4101 446.585 29.2748C447.261 29.6807 448.005 30.0189 448.884 30.2218C453.144 31.304 457.539 28.8014 458.688 24.5402C459.77 20.4143 457.2 16.0855 452.941 14.9357Z" fill="black"/>
<path d="M439.553 38.6764C439.147 37.3237 438.133 36.1062 436.646 35.5651C434.144 34.6182 431.372 35.8357 430.425 38.3382C429.478 40.7732 430.695 43.5463 433.197 44.4933C434.82 45.102 436.578 44.7638 437.863 43.8169" fill="#EDE73B"/>
<path d="M439.553 38.6764C439.147 37.3237 438.133 36.1062 436.646 35.5651C434.144 34.6182 431.372 35.8357 430.425 38.3382C429.478 40.7732 430.695 43.5463 433.197 44.4933C434.82 45.102 436.578 44.7638 437.863 43.8169" stroke="black" stroke-width="2" stroke-miterlimit="10" stroke-linecap="round" stroke-linejoin="round"/>
<path d="M424.813 51.9335C421.703 51.8659 418.66 52.6775 416.023 54.3685C401.891 63.6349 390.938 77.0271 381.877 91.0958C360.579 124.035 348.002 162.183 345.636 200.939L439.35 228.197V66.7462C439.35 58.7649 432.927 52.2041 424.813 51.9335Z" fill="#DD7800" stroke="black" stroke-width="2" stroke-miterlimit="10" stroke-linecap="round" stroke-linejoin="round"/>
<path d="M427.315 185.044C427.315 195.393 418.863 203.78 408.382 203.78C397.902 203.78 389.45 195.393 389.45 185.044V162.318H427.315V185.044Z" stroke="black" stroke-width="2" stroke-miterlimit="10" stroke-linecap="round" stroke-linejoin="round"/>
<path d="M404.934 105.503V160.627V170.367C404.934 181.324 413.859 190.185 424.948 190.185H493.307V160.627H451.791C444.894 160.627 439.35 155.081 439.35 148.317V78.5828" fill="#DD7800"/>
<path d="M404.934 105.503V160.627V170.367C404.934 181.324 413.859 190.185 424.948 190.185H493.307V160.627H451.791C444.894 160.627 439.35 155.081 439.35 148.317V78.5828" stroke="black" stroke-width="2" stroke-miterlimit="10" stroke-linecap="round" stroke-linejoin="round"/>
<path d="M459.161 391.542C457.403 389.31 454.496 388.228 451.656 387.822C448.816 387.416 445.909 387.484 443.069 386.875C436.375 385.455 430.696 380.111 428.87 373.551L395.13 373.415C394.454 373.348 395.806 373.415 395.13 373.415C386.746 373.415 379.917 379.976 379.917 388.025C379.917 395.668 386.002 402.5 393.778 403.176H455.307C457.674 402.567 459.635 400.673 460.378 398.374C461.122 396.074 460.649 393.436 459.161 391.542Z" fill="#EDE73B" stroke="black" stroke-width="2" stroke-miterlimit="10" stroke-linecap="round" stroke-linejoin="round"/>
<path d="M456.66 411.969H378.902C376.671 411.969 374.845 410.143 374.845 407.911C374.845 405.679 376.671 403.852 378.902 403.852H456.66C458.891 403.852 460.716 405.679 460.716 407.911C460.716 410.143 458.891 411.969 456.66 411.969Z" fill="black" stroke="black" stroke-width="2" stroke-miterlimit="10" stroke-linecap="round" stroke-linejoin="round"/>
<path d="M452.535 384.305C450.845 382.817 448.275 382.885 446.72 384.508L426.165 407.911H437.322L452.805 390.054C454.293 388.363 454.225 385.793 452.535 384.305Z" fill="black" stroke="black" stroke-width="2" stroke-miterlimit="10" stroke-linecap="round" stroke-linejoin="round"/>
<path d="M415.617 407.911L438.471 383.223C440.026 381.6 439.891 379.029 438.268 377.474C436.578 375.986 434.009 376.053 432.453 377.677L404.528 407.843L415.617 407.911Z" fill="black" stroke="black" stroke-width="2" stroke-miterlimit="10" stroke-linecap="round" stroke-linejoin="round"/>
<path d="M403.041 379.165C403.852 383.832 402.703 388.837 399.863 392.625" stroke="black" stroke-width="2" stroke-miterlimit="10" stroke-linecap="round" stroke-linejoin="round"/>
<path d="M418.187 252.682C413.724 278.52 397.497 300.57 381.81 321.605" stroke="black" stroke-width="2" stroke-miterlimit="10" stroke-linecap="round" stroke-linejoin="round"/>
<path d="M416.158 298.338C412.778 306.454 408.247 314.097 402.703 320.929" stroke="black" stroke-width="2" stroke-miterlimit="10" stroke-linecap="round" stroke-linejoin="round"/>
<path d="M388.098 116.46C382.486 125.726 375.995 134.451 368.692 142.433" stroke="black" stroke-width="2" stroke-miterlimit="10" stroke-linecap="round" stroke-linejoin="round"/>
<path d="M392.966 133.775C388.504 139.795 383.703 145.544 378.564 151.023" stroke="black" stroke-width="2" stroke-miterlimit="10" stroke-linecap="round" stroke-linejoin="round"/>
<path d="M425.489 84.5349C422.649 88.052 419.809 91.5015 416.97 95.0187" stroke="black" stroke-width="2" stroke-miterlimit="10" stroke-linecap="round" stroke-linejoin="round"/>
<path d="M465.855 209.259H457.742V411.901H465.855V209.259Z" fill="white" stroke="black" stroke-width="2" stroke-miterlimit="10" stroke-linecap="round" stroke-linejoin="round"/>
<path d="M576 209.259H567.886V411.901H576V209.259Z" fill="white" stroke="black" stroke-width="2" stroke-miterlimit="10" stroke-linecap="round" stroke-linejoin="round"/>
<path d="M575.932 63.1613H487.154L457.742 209.259H575.932V63.1613Z" fill="#47C3F1" stroke="black" stroke-width="2" stroke-miterlimit="10" stroke-linecap="round" stroke-linejoin="round"/>
<path d="M524.072 90.0812L531.915 114.16H557.271L536.784 129.04L544.559 153.119L524.072 138.239L503.584 153.119L511.428 129.04L490.94 114.16H516.229L524.072 90.0812Z" fill="white" stroke="black" stroke-width="2" stroke-miterlimit="10" stroke-linecap="round" stroke-linejoin="round"/>
<path d="M478.837 165.632H483.706L486.613 175.034L487.898 180.039L489.182 175.034L492.022 165.632H496.688L490.332 185.383H485.261L478.837 165.632Z" fill="black"/>
<path d="M507.777 185.856C501.962 185.856 497.905 181.662 497.905 175.507C497.905 169.352 501.894 165.227 507.709 165.227C513.659 165.227 517.581 169.352 517.581 175.71C517.581 181.663 513.524 185.856 507.777 185.856ZM507.777 182.001C510.819 182.001 512.848 179.43 512.848 175.575C512.848 171.855 511.09 169.014 507.709 169.014C504.396 169.014 502.638 171.855 502.638 175.44C502.638 179.43 504.666 182.001 507.777 182.001Z" fill="black"/>
<path d="M519.474 169.691V165.632H535.972V169.691H530.089V185.383H525.356V169.691H519.474Z" fill="black"/>
<path d="M538.609 165.632H554.16V169.488H543.274V173.478H553.011V177.063H543.274V181.392H554.566V185.45H538.609V165.632Z" fill="black"/>
<path d="M561.868 180.716V185.383H557.271V180.716H561.868ZM558.014 178.822L557.338 165.565H561.801L561.125 178.822H558.014Z" fill="black"/>
<path d="M193.299 75.1332C185.929 75.1332 179.912 81.153 179.912 88.5255C179.912 81.153 173.894 75.1332 166.524 75.1332C173.894 75.1332 179.912 69.1135 179.912 61.741C179.912 69.1135 185.929 75.1332 193.299 75.1332Z" fill="#47C3F1" stroke="black" stroke-width="2" stroke-miterlimit="10" stroke-linecap="round" stroke-linejoin="round"/>
<path d="M272.273 139.998C275.384 139.998 278.359 139.186 280.928 137.698" stroke="black" stroke-width="2" stroke-miterlimit="10" stroke-linecap="round" stroke-linejoin="round"/>
<path d="M283.43 261.746H231.096V360.091H283.43V261.746Z" stroke="black" stroke-width="2" stroke-miterlimit="10" stroke-linecap="round" stroke-linejoin="round"/>
<path d="M218.114 234.623C218.114 256.267 235.694 273.853 257.331 273.853C278.967 273.853 296.547 256.267 296.547 234.623V200.669H218.114V234.623Z" fill="#0F775E" stroke="black" stroke-width="2" stroke-miterlimit="10" stroke-linecap="round" stroke-linejoin="round"/>
<path d="M218.114 207.094C218.114 228.738 235.694 246.324 257.331 246.324C278.967 246.324 296.547 228.738 296.547 207.094" stroke="black" stroke-width="2" stroke-miterlimit="10" stroke-linecap="round" stroke-linejoin="round"/>
<path d="M239.413 200.669H295.06L283.903 142.906V140.539V139.457C283.903 138.374 284.579 137.428 285.526 137.022C290.124 134.316 293.302 128.296 293.302 122.818C293.302 120.518 292.828 118.286 291.949 116.257L271.462 77.0947L270.989 76.2154C267.811 71.075 261.928 67.5578 255.234 67.5578C247.391 67.5578 240.697 72.2924 238.128 78.8533L238.466 78.0416L221.224 124.441" fill="#EDE73B"/>
<path d="M239.413 200.669H295.06L283.903 142.906V140.539V139.457C283.903 138.374 284.579 137.428 285.526 137.022C290.124 134.316 293.302 128.296 293.302 122.818C293.302 120.518 292.828 118.286 291.949 116.257L271.462 77.0947L270.989 76.2154C267.811 71.075 261.928 67.5578 255.234 67.5578C247.391 67.5578 240.697 72.2924 238.128 78.8533L238.466 78.0416L221.224 124.441" stroke="black" stroke-width="2" stroke-miterlimit="10" stroke-linecap="round" stroke-linejoin="round"/>
<path d="M265.58 117.474L246.039 173.14" stroke="black" stroke-width="2" stroke-miterlimit="10" stroke-linecap="round" stroke-linejoin="round"/>
<path d="M292.017 147.573L268.419 161.236C265.444 162.927 261.658 161.912 259.9 158.936C258.21 155.96 259.224 152.173 262.199 150.414L285.796 136.751C288.771 135.06 292.558 136.075 294.316 139.051C296.006 142.095 294.992 145.882 292.017 147.573Z" fill="#FC7EE4" stroke="black" stroke-width="2" stroke-miterlimit="10" stroke-linecap="round" stroke-linejoin="round"/>
<path d="M247.797 69.0458C245.566 69.9251 243.537 71.4808 241.847 73.1717C265.58 93.0572 278.9 122.615 278.9 153.863C278.9 153.999 278.9 153.999 278.9 153.999V200.669H285.526V152.849C285.526 120.315 272.071 90.1488 247.797 69.0458Z" fill="#DD7800" stroke="black" stroke-width="2" stroke-miterlimit="10" stroke-linecap="round" stroke-linejoin="round"/>
<path d="M308.177 165.835C308.177 162.386 305.405 159.613 301.957 159.613C305.405 159.613 308.177 156.84 308.177 153.39C308.177 149.941 305.405 147.167 301.957 147.167C301.754 147.167 301.551 147.167 301.348 147.167L284.85 147.235C274.708 147.303 264.633 149.535 255.437 153.796L252.598 155.081H252.395L257.128 141.486L221.292 124.509L205.199 170.367L204.32 173.208C203.509 176.387 203.171 179.701 203.306 183.151C204.118 199.789 217.438 213.385 234.071 214.467C239.954 214.873 245.498 213.723 250.366 211.355C254.491 209.394 258.074 206.418 260.982 202.901C263.146 200.263 265.58 197.76 267.946 195.393C273.558 189.914 280.387 184.977 288.163 184.639L288.569 184.571H301.957C305.405 184.571 308.177 181.798 308.177 178.348C308.177 174.899 305.405 172.126 301.957 172.126C305.405 172.058 308.177 169.285 308.177 165.835Z" fill="#FC7EE4" stroke="black" stroke-width="2" stroke-miterlimit="10" stroke-linecap="round" stroke-linejoin="round"/>
<path d="M301.956 159.545H280.32" stroke="black" stroke-width="2" stroke-miterlimit="10" stroke-linecap="round" stroke-linejoin="round"/>
<path d="M301.956 172.058H280.32" stroke="black" stroke-width="2" stroke-miterlimit="10" stroke-linecap="round" stroke-linejoin="round"/>
<path d="M252.395 155.013L221.359 169.42" stroke="black" stroke-width="2" stroke-miterlimit="10" stroke-linecap="round" stroke-linejoin="round"/>
<path d="M274.572 360.091H242.117V382.682H274.572V360.091Z" fill="#FC7EE4" stroke="black" stroke-width="2" stroke-miterlimit="10" stroke-linecap="round" stroke-linejoin="round"/>
<path d="M274.64 375.918H242.117V407.911C242.117 410.684 244.619 412.983 247.729 412.983C250.839 412.983 253.341 410.751 253.341 407.911V396.142C263.213 405.746 277.345 411.969 293.031 411.969C299.928 411.969 306.554 410.819 312.572 408.655C315.277 407.64 317.102 405.273 317.102 402.5C317.102 398.779 313.857 395.668 309.8 395.668C309.124 395.668 307.704 395.871 307.028 396.006C304.188 396.818 301.483 397.427 298.508 397.427C285.391 397.494 274.64 387.822 274.64 375.918Z" fill="#383838" stroke="black" stroke-width="2" stroke-miterlimit="10" stroke-linecap="round" stroke-linejoin="round"/>
<path d="M271.394 55.8565H267.54C266.053 55.8565 264.836 54.6391 264.836 53.151V52.5423C264.836 51.0543 266.053 49.8368 267.54 49.8368H271.394C272.882 49.8368 274.099 51.0543 274.099 52.5423V53.151C274.099 54.6391 272.882 55.8565 271.394 55.8565Z" fill="#FC7EE4" stroke="black" stroke-width="2" stroke-miterlimit="10" stroke-linecap="round" stroke-linejoin="round"/>
<path d="M263.483 67.6254H251.854C248.27 67.6254 245.43 64.717 245.43 61.1998V44.6286C245.43 41.0438 248.338 38.203 251.854 38.203H263.483C267.067 38.203 269.907 41.1114 269.907 44.6286V61.1998C269.907 64.717 267.067 67.6254 263.483 67.6254Z" fill="#FC7EE4" stroke="black" stroke-width="2" stroke-miterlimit="10" stroke-linecap="round" stroke-linejoin="round"/>
<path d="M265.309 50.6484C265.907 50.6484 266.391 50.0428 266.391 49.2957C266.391 48.5486 265.907 47.9429 265.309 47.9429C264.712 47.9429 264.227 48.5486 264.227 49.2957C264.227 50.0428 264.712 50.6484 265.309 50.6484Z" fill="black" stroke="black" stroke-width="2" stroke-miterlimit="10" stroke-linecap="round" stroke-linejoin="round"/>
<path d="M267.405 35.6329C267.405 31.7099 264.16 28.4633 260.17 28.4633C256.181 28.4633 252.936 31.6422 252.936 35.6329C252.936 36.3092 253.071 36.9856 253.206 37.662H251.448C248.811 35.9034 245.566 34.8888 242.117 34.8888C232.786 34.8888 225.146 42.4643 225.146 51.8659C225.146 61.2675 232.719 68.8429 242.117 68.8429C251.516 68.8429 259.089 61.2675 259.089 51.8659C259.089 49.4309 258.548 47.1313 257.669 45.0345C260.508 44.2228 262.875 42.9377 264.633 41.3144C265.647 40.5028 266.459 39.4882 266.932 38.2707C266.932 38.2031 267 38.1354 267 38.1354C267.27 37.2562 267.405 36.4445 267.405 35.6329Z" fill="#FF0000" stroke="black" stroke-width="2" stroke-miterlimit="10" stroke-linecap="round" stroke-linejoin="round"/>
<path d="M265.309 56.9387L269.501 58.4267" stroke="black" stroke-width="2" stroke-miterlimit="10" stroke-linecap="round" stroke-linejoin="round"/>
<path d="M242.185 233.203C243.417 233.203 244.416 231.961 244.416 230.429C244.416 228.898 243.417 227.656 242.185 227.656C240.952 227.656 239.953 228.898 239.953 230.429C239.953 231.961 240.952 233.203 242.185 233.203Z" fill="black" stroke="black" stroke-width="2" stroke-miterlimit="10" stroke-linecap="round" stroke-linejoin="round"/>
<path d="M272.341 233.203C273.573 233.203 274.572 231.961 274.572 230.429C274.572 228.898 273.573 227.656 272.341 227.656C271.109 227.656 270.11 228.898 270.11 230.429C270.11 231.961 271.109 233.203 272.341 233.203Z" fill="black" stroke="black" stroke-width="2" stroke-miterlimit="10" stroke-linecap="round" stroke-linejoin="round"/>
<path d="M107.09 232.594L100.396 227.656" stroke="black" stroke-width="2" stroke-miterlimit="10" stroke-linecap="round" stroke-linejoin="round"/>
<path d="M106.141 19.2622H102.287C100.8 19.2622 99.5827 18.0447 99.5827 16.5567V15.9479C99.5827 14.4599 100.8 13.2424 102.287 13.2424H106.141C107.629 13.2424 108.846 14.4599 108.846 15.9479V16.5567C108.778 18.1123 107.629 19.2622 106.141 19.2622Z" fill="#EDE73B" stroke="black" stroke-width="2" stroke-miterlimit="10" stroke-linecap="round" stroke-linejoin="round"/>
<path d="M97.757 30.4224H86.1272C82.5436 30.4224 79.7038 27.514 79.7038 23.9968V7.42558C79.7038 3.84078 82.6112 1 86.1272 1H97.757C101.341 1 104.18 3.90842 104.18 7.42558V23.9968C104.18 27.514 101.273 30.4224 97.757 30.4224Z" fill="#EDE73B" stroke="black" stroke-width="2" stroke-miterlimit="10" stroke-linecap="round" stroke-linejoin="round"/>
<path d="M103.707 5.59936C102.422 3.84078 99.3798 1 97.0133 1H86.8034C82.8817 1 79.6362 4.17897 79.6362 8.16959V14.7304L103.707 5.59936Z" fill="black" stroke="black" stroke-width="2" stroke-miterlimit="10" stroke-linecap="round" stroke-linejoin="round"/>
<path d="M82.5435 13.3776L111.686 2.21741" stroke="black" stroke-width="4" stroke-miterlimit="10" stroke-linecap="round" stroke-linejoin="round"/>
<path d="M91.6716 11.7543C90.7926 10.6045 89.3727 9.86047 87.8176 9.86047C85.1806 9.86047 83.0169 12.0249 83.0169 14.6627C83.0169 17.3006 85.1806 19.465 87.8176 19.465C89.5755 19.465 91.0631 18.5181 91.9421 17.1653" fill="#EDE73B"/>
<path d="M91.6716 11.7543C90.7926 10.6045 89.3727 9.86047 87.8176 9.86047C85.1806 9.86047 83.0169 12.0249 83.0169 14.6627C83.0169 17.3006 85.1806 19.465 87.8176 19.465C89.5755 19.465 91.0631 18.5181 91.9421 17.1653" stroke="black" stroke-width="2" stroke-miterlimit="10" stroke-linecap="round" stroke-linejoin="round"/>
<path d="M101.679 11.8896H97.7571" stroke="black" stroke-width="2" stroke-miterlimit="10" stroke-linecap="round" stroke-linejoin="round"/>
<path d="M103.775 21.5619H99.7178" stroke="black" stroke-width="2" stroke-miterlimit="10" stroke-linecap="round" stroke-linejoin="round"/>
<path d="M139.746 162.113C139.746 144.933 135.148 125.792 127.102 111.858H127.17C119.867 98.4659 115.675 83.0445 115.675 66.6762L115.472 50.7813C115.405 44.491 112.632 38.4037 107.696 34.5483C104.18 31.7752 99.7179 30.1519 94.9172 30.1519C92.2126 30.1519 89.4404 30.7606 86.7358 31.7075C80.7857 33.8719 75.7822 38.1331 72.2662 43.4088C65.6399 53.4192 62.9353 65.6616 62.9353 78.9186V125.25H102.963V162.113H139.746Z" fill="#0F775E" stroke="black" stroke-width="2" stroke-miterlimit="10" stroke-linecap="round" stroke-linejoin="round"/>
<path d="M130.212 276.556C130.212 267.019 122.504 259.241 112.903 259.241C106.344 259.241 100.597 262.893 97.6893 268.304H79.0952V315.448H123.924V289.813C127.778 286.701 130.212 281.899 130.212 276.556Z" fill="#EDE73B" stroke="black" stroke-width="2" stroke-miterlimit="10" stroke-linecap="round" stroke-linejoin="round"/>
<path d="M137.177 205.13H63.0029V268.372H137.177V205.13Z" fill="#383838" stroke="black" stroke-width="2" stroke-miterlimit="10" stroke-linecap="round" stroke-linejoin="round"/>
<path d="M154.486 222.919C171.052 222.919 184.507 209.459 184.507 192.888C184.507 176.317 171.052 162.857 154.486 162.857H31.0211C14.4554 162.857 1 176.317 1 192.888C1 209.459 14.4554 222.919 31.0211 222.919H154.486Z" fill="#E0E0E0" stroke="black" stroke-width="2" stroke-miterlimit="10" stroke-linecap="round" stroke-linejoin="round"/>
<path d="M51.2379 206.754V197.014H55.6329V189.98H51.2379L49.4799 180.307H41.8394V193.632V206.754H51.2379Z" fill="#E0E0E0" stroke="black" stroke-width="2" stroke-miterlimit="10" stroke-linecap="round" stroke-linejoin="round"/>
<path d="M35.5513 202.898H59.0813C61.6507 202.898 63.7467 204.995 63.7467 207.565V210.406C63.7467 212.976 61.6507 215.073 59.0813 215.073H35.5513C32.9819 215.073 30.8858 212.976 30.8858 210.406V207.565C30.8858 204.995 32.9819 202.898 35.5513 202.898Z" fill="#EDE73B" stroke="black" stroke-width="2" stroke-miterlimit="10" stroke-linecap="round" stroke-linejoin="round"/>
<path d="M35.5512 170.568H59.0813C61.6506 170.568 63.7467 172.664 63.7467 175.235V178.075C63.7467 180.646 61.6506 182.742 59.0813 182.742H35.5512C32.9819 182.742 30.8858 180.646 30.8858 178.075V175.302C30.8858 172.664 32.9819 170.568 35.5512 170.568Z" fill="#EDE73B" stroke="black" stroke-width="2" stroke-miterlimit="10" stroke-linecap="round" stroke-linejoin="round"/>
<path d="M142.112 206.754V197.014H146.44V189.98H142.112L140.287 180.307H132.714V193.632V206.754H142.112Z" fill="#E0E0E0" stroke="black" stroke-width="2" stroke-miterlimit="10" stroke-linecap="round" stroke-linejoin="round"/>
<path d="M126.426 202.898H149.956C152.525 202.898 154.621 204.995 154.621 207.565V210.406C154.621 212.976 152.525 215.073 149.956 215.073H126.426C123.856 215.073 121.76 212.976 121.76 210.406V207.565C121.76 204.995 123.856 202.898 126.426 202.898Z" fill="#EDE73B" stroke="black" stroke-width="2" stroke-miterlimit="10" stroke-linecap="round" stroke-linejoin="round"/>
<path d="M126.426 170.568H149.956C152.525 170.568 154.621 172.664 154.621 175.235V178.075C154.621 180.646 152.525 182.742 149.956 182.742H126.426C123.856 182.742 121.76 180.646 121.76 178.075V175.302C121.76 172.664 123.856 170.568 126.426 170.568Z" fill="#EDE73B" stroke="black" stroke-width="2" stroke-miterlimit="10" stroke-linecap="round" stroke-linejoin="round"/>
<path d="M106.547 249.095V250.312C106.547 253.965 103.572 257.009 99.8531 257.009C96.1343 257.009 93.1592 254.033 93.1592 250.312V249.366V250.312C93.1592 253.965 90.1842 257.009 86.4653 257.009C82.7465 257.009 79.7714 254.033 79.7714 250.312V248.757C79.7714 184.028 62.9353 190.047 62.9353 125.318H102.963C102.963 190.047 119.8 184.028 119.8 248.757V250.312C119.8 253.965 116.824 257.009 113.106 257.009C109.454 257.009 106.412 254.033 106.412 250.312" fill="#EDE73B"/>
<path d="M106.547 249.095V250.312C106.547 253.965 103.572 257.009 99.8531 257.009C96.1343 257.009 93.1592 254.033 93.1592 250.312V249.366V250.312C93.1592 253.965 90.1842 257.009 86.4653 257.009C82.7465 257.009 79.7714 254.033 79.7714 250.312V248.757C79.7714 184.028 62.9353 190.047 62.9353 125.318H102.963C102.963 190.047 119.8 184.028 119.8 248.757V250.312C119.8 253.965 116.824 257.009 113.106 257.009C109.454 257.009 106.412 254.033 106.412 250.312" stroke="black" stroke-width="2" stroke-miterlimit="10" stroke-linecap="round" stroke-linejoin="round"/>
<path d="M106.547 249.095C106.547 239.017 106.141 229.412 105.465 222.243" stroke="black" stroke-width="2" stroke-miterlimit="10" stroke-linecap="round" stroke-linejoin="round"/>
<path d="M92.0774 222.243C92.7535 229.412 93.1592 239.287 93.1592 249.366" stroke="black" stroke-width="2" stroke-miterlimit="10" stroke-linecap="round" stroke-linejoin="round"/>
<path d="M103.031 125.25V80.2713" stroke="black" stroke-width="2" stroke-miterlimit="10" stroke-linecap="round" stroke-linejoin="round"/>
<path d="M79.0952 368.34V411.831H168.753C168.753 411.831 168.753 368.34 123.924 368.34H79.0952Z" fill="#FF0000" stroke="black" stroke-width="2" stroke-miterlimit="10" stroke-linecap="round" stroke-linejoin="round"/>
<path d="M92.5508 399.656C92.5508 391.608 86.8035 384.911 79.163 383.491V411.831H87.2092C90.4547 408.788 92.5508 404.459 92.5508 399.656Z" fill="#FF0000" stroke="black" stroke-width="2" stroke-miterlimit="10" stroke-linecap="round" stroke-linejoin="round"/>
<path d="M79.0952 402.024V411.831H168.753C168.753 411.831 168.753 407.705 167.468 402.024H79.0952Z" fill="#DD7800" stroke="black" stroke-width="2" stroke-miterlimit="10" stroke-linecap="round" stroke-linejoin="round"/>
<path d="M123.924 315.515H79.0952V368.34H123.924V315.515Z" fill="#FFF2ED" stroke="black" stroke-width="2" stroke-miterlimit="10" stroke-linecap="round" stroke-linejoin="round"/>
<path d="M130.888 388.361C131.565 388.902 132.376 389.173 133.187 389.173C134.337 389.173 135.419 388.699 136.162 387.685L147.048 373.481C144.885 372.331 142.518 371.316 139.881 370.505L130.212 383.085C128.928 384.708 129.198 387.076 130.888 388.361Z" fill="#FF0000" stroke="black" stroke-width="2" stroke-miterlimit="10" stroke-linecap="round" stroke-linejoin="round"/>
<path d="M121.355 388.361C122.031 388.902 122.842 389.173 123.654 389.173C124.803 389.173 125.885 388.699 126.629 387.685L139.814 370.505C137.312 369.761 134.607 369.152 131.7 368.814L120.678 383.085C119.461 384.709 119.732 387.076 121.355 388.361Z" fill="#FF0000" stroke="black" stroke-width="2" stroke-miterlimit="10" stroke-linecap="round" stroke-linejoin="round"/>
<path d="M111.889 388.361C112.565 388.902 113.376 389.173 114.187 389.173C115.337 389.173 116.419 388.699 117.163 387.685L131.7 368.814C129.266 368.475 126.696 368.34 123.992 368.34H122.639L111.28 383.085C109.928 384.708 110.266 387.076 111.889 388.361Z" fill="#FF0000" stroke="black" stroke-width="2" stroke-miterlimit="10" stroke-linecap="round" stroke-linejoin="round"/>
<path d="M92.2126 324.443V356.774" stroke="black" stroke-width="2" stroke-miterlimit="10" stroke-linecap="round" stroke-linejoin="round"/>
<path d="M103.437 324.443V356.774" stroke="black" stroke-width="2" stroke-miterlimit="10" stroke-linecap="round" stroke-linejoin="round"/>
<path d="M113.782 324.443V356.774" stroke="black" stroke-width="2" stroke-miterlimit="10" stroke-linecap="round" stroke-linejoin="round"/>
<path d="M124.6 289.136C122.301 291.166 119.461 292.586 116.486 293.262" stroke="black" stroke-width="2" stroke-miterlimit="10" stroke-linecap="round" stroke-linejoin="round"/>
<path d="M86.2625 30.2194C80.6504 30.2194 75.2412 31.8427 70.5758 34.8188C69.0207 35.8334 67.5331 36.9832 66.1808 38.2683C66.1132 38.3359 66.0456 38.4036 65.978 38.4712C54.8215 47.7376 45.2202 57.9509 37.7826 70.5991C29.3307 85.0059 24.3272 101.577 24.9357 118.284C25.409 129.444 28.5193 140.875 35.8217 149.329C43.1241 157.852 54.3482 162.789 65.5723 162.586C64.0172 153.049 62.9353 141.348 62.9353 125.183V78.9185C62.9353 65.7292 65.5723 53.4191 72.2662 43.4088C72.2662 43.4088 72.2662 43.3411 72.3338 43.3411C74.9708 39.3505 79.2981 36.7803 84.0312 36.3068C84.775 36.2392 85.5187 36.1715 86.2625 36.1715C98.9065 36.1715 109.116 46.4525 109.116 59.0331C109.116 62.6855 107.764 65.9998 106.277 69.5169C106.006 70.1933 105.736 70.8697 105.465 71.546L102.963 77.4981V93.1901L111.01 73.8457C111.28 73.1693 111.55 72.493 111.821 71.8842C113.444 67.9612 115.134 63.903 115.134 59.1007C115.202 43.2059 102.22 30.2194 86.2625 30.2194Z" fill="#47C3F1" stroke="black" stroke-width="2" stroke-miterlimit="10" stroke-linecap="round" stroke-linejoin="round"/>
<path d="M64.558 62.8209C63.8143 64.9176 62.7324 66.8791 61.5154 68.7053C54.6863 78.7157 42.786 85.1413 30.4801 85.4795" stroke="black" stroke-width="2" stroke-miterlimit="10" stroke-linecap="round" stroke-linejoin="round"/>
<path d="M140.152 369.422C141.436 369.017 142.518 368.34 143.532 367.393C146.237 364.958 147.386 361.171 146.507 357.586C146.102 356.03 145.358 354.542 144.276 353.325C140.625 349.266 134.337 348.928 130.28 352.581C129.266 353.46 128.522 354.542 127.913 355.76C127.846 355.895 127.778 356.098 127.71 356.233C127.643 356.504 127.508 356.707 127.44 356.977L124.938 363.944C124.533 365.026 124.465 366.176 124.803 367.258C125.006 368.137 125.479 369.017 126.088 369.693C127.508 371.249 129.671 371.925 131.7 371.452L138.867 369.693C139.137 369.625 139.34 369.558 139.611 369.49C139.746 369.49 139.949 369.49 140.152 369.422ZM138.529 365.635C138.326 365.702 138.191 365.702 137.988 365.77L130.753 367.529C130.145 367.664 129.536 367.461 129.13 366.987C128.725 366.514 128.589 365.905 128.792 365.297L131.294 358.262C131.362 358.059 131.429 357.924 131.497 357.721C131.497 357.653 131.565 357.586 131.565 357.518C131.903 356.774 132.376 356.165 132.984 355.624C135.419 353.46 139.137 353.663 141.301 356.03C143.465 358.397 143.262 362.185 140.895 364.35C140.287 364.891 139.611 365.297 138.867 365.567C138.664 365.567 138.596 365.635 138.529 365.635Z" fill="#FF0000" stroke="black" stroke-width="2" stroke-miterlimit="10" stroke-linecap="round" stroke-linejoin="round"/>
<path d="M37.0388 149.803H63.8144" stroke="black" stroke-width="2" stroke-miterlimit="10" stroke-linecap="round" stroke-linejoin="round"/>
<path d="M28.9926 137.087H63.003" stroke="black" stroke-width="2" stroke-miterlimit="10" stroke-linecap="round" stroke-linejoin="round"/>
<path d="M25.5443 124.371H62.462" stroke="black" stroke-width="2" stroke-miterlimit="10" stroke-linecap="round" stroke-linejoin="round"/>
<path d="M62.462 162.654V111.655H25.6118" stroke="black" stroke-width="2" stroke-miterlimit="10" stroke-linecap="round" stroke-linejoin="round"/>
<path d="M49.7504 111.655V159.475" stroke="black" stroke-width="2" stroke-miterlimit="10" stroke-linecap="round" stroke-linejoin="round"/>
<path d="M37.0388 111.655V149.803" stroke="black" stroke-width="2" stroke-miterlimit="10" stroke-linecap="round" stroke-linejoin="round"/>
<path d="M81.7322 57.8833C82.9493 67.7584 85.7891 77.4982 90.0489 86.5617" stroke="black" stroke-width="2" stroke-miterlimit="10" stroke-linecap="round" stroke-linejoin="round"/>
<path d="M76.323 76.0778C76.661 80.0684 77.6077 83.9914 79.1628 87.7115" stroke="black" stroke-width="2" stroke-miterlimit="10" stroke-linecap="round" stroke-linejoin="round"/>
<path d="M116.013 123.424C116.96 130.864 119.935 138.034 124.465 143.986" stroke="black" stroke-width="2" stroke-miterlimit="10" stroke-linecap="round" stroke-linejoin="round"/>
<path d="M134.204 355.086H62.87V368.207H134.204V355.086Z" fill="#DD7800" stroke="black" stroke-width="2" stroke-miterlimit="10" stroke-linecap="round" stroke-linejoin="round"/>
</svg>
